<?xml version="1.0" standalone="no"?>
<!DOCTYPE svg PUBLIC "-//W3C//DTD SVG 20010904//EN"
 "http://www.w3.org/TR/2001/REC-SVG-20010904/DTD/svg10.dtd">
<svg version="1.0" xmlns="http://www.w3.org/2000/svg"
 width="142.000000pt" height="231.000000pt" viewBox="0 0 142.000000 231.000000"
 preserveAspectRatio="xMidYMid meet">

<g transform="translate(0.000000,231.000000) scale(0.100000,-0.100000)"
fill="#000000" stroke="none">
<path d="M0 2164 c0 -111 3 -150 13 -158 8 -6 86 -114 173 -241 l159 -229 3
384 3 385 89 -137 90 -137 0 -436 0 -435 76 -110 c42 -61 80 -110 83 -110 3 0
48 58 99 127 l92 127 0 419 0 418 90 137 89 137 3 -375 3 -374 163 221 c90
123 169 229 177 237 12 11 15 45 15 155 l0 141 -710 0 -710 0 0 -146z"/>
<path d="M170 780 l0 -775 -76 115 c-42 63 -80 119 -85 125 -5 5 -9 -45 -9
-118 l0 -127 710 0 710 0 0 130 c0 72 -2 130 -4 130 -3 0 -42 -54 -88 -120
l-83 -119 -5 767 -5 767 -41 -55 c-22 -30 -62 -84 -87 -119 l-47 -63 0 -384 0
-383 -87 -125 -88 -125 -5 327 -5 327 -70 -95 c-39 -52 -81 -110 -94 -128
l-23 -33 -77 112 -76 111 -5 -310 -5 -311 -87 125 -88 125 0 373 0 373 -76
109 c-42 60 -83 118 -90 129 -12 17 -14 -95 -14 -755z"/>
</g>
</svg>
