<svg width="200" height="60" viewBox="0 0 200 60" xmlns="http://www.w3.org/2000/svg">
  <!-- Background -->
  <rect width="200" height="60" fill="transparent"/>
  
  <!-- Simplified version of your logo path - making it more web-friendly -->
  <g transform="translate(10,10) scale(0.8,0.4)" fill="#000000">
    <path d="M40 19 L0 38 C9 25 17 23 17 23 C9 13 17 0 40 19 L40 19 M40 19 C63 0 71 13 63 23 C63 23 71 25 80 38 L40 19"/>
    <path d="M20 25 L60 25 C58 30 55 35 50 38 C45 35 42 30 40 25 C38 30 35 35 30 38 C25 35 22 30 20 25"/>
  </g>
  
  <!-- Text -->
  <text x="100" y="25" font-family="Arial, sans-serif" font-size="18" font-weight="bold" fill="#000000">Invest</text>
  <text x="100" y="42" font-family="Arial, sans-serif" font-size="18" font-weight="bold" fill="#2563eb">Cyber</text>
</svg>
