<?xml version="1.0" standalone="no"?>
<!DOCTYPE svg PUBLIC "-//W3C//DTD SVG 20010904//EN"
 "http://www.w3.org/TR/2001/REC-SVG-20010904/DTD/svg10.dtd">
<svg version="1.0" xmlns="http://www.w3.org/2000/svg"
 width="156.000000pt" height="241.000000pt" viewBox="0 0 156.000000 241.000000"
 preserveAspectRatio="xMidYMid meet">

<g transform="translate(0.000000,241.000000) scale(0.100000,-0.100000)"
fill="#FFFFFF" stroke="none">
<path d="M398 1902 l-3 -381 -163 234 c-90 129 -168 235 -173 235 -5 0 -9
-338 -9 -867 l0 -867 83 -125 82 -124 5 768 5 768 87 -126 88 -126 0 -373 0
-373 88 -125 87 -125 5 310 5 310 74 -107 c41 -59 78 -105 82 -102 5 2 48 59
96 125 l88 121 5 -329 5 -328 87 125 88 125 0 384 0 384 88 119 87 120 5 -768
5 -769 87 125 88 125 0 868 c0 507 -4 867 -9 867 -5 0 -85 -103 -178 -230
l-168 -229 -5 372 -5 372 -87 -135 -88 -135 0 -418 0 -419 -91 -124 c-50 -68
-95 -124 -100 -124 -4 0 -42 48 -84 107 l-75 107 0 435 0 436 -81 125 c-44 69
-85 129 -90 134 -5 6 -10 -146 -11 -372z"/>
</g>
</svg>
